<?xml version="1.0" encoding="UTF-8" standalone="no"?><svg xmlns="http://www.w3.org/2000/svg" xmlns:xlink="http://www.w3.org/1999/xlink" contentScriptType="application/ecmascript" contentStyleType="text/css" height="363px" preserveAspectRatio="none" style="width:983px;height:363px;background:#FFFFFF;" version="1.1" viewBox="0 0 983 363" width="983px" zoomAndPan="magnify"><defs><filter height="300%" id="f1vixw6e4o6k1n" width="300%" x="-1" y="-1"><feGaussianBlur result="blurOut" stdDeviation="2.0"/><feColorMatrix in="blurOut" result="blurOut2" type="matrix" values="0 0 0 0 0 0 0 0 0 0 0 0 0 0 0 0 0 0 .4 0"/><feOffset dx="4.0" dy="4.0" in="blurOut2" result="blurOut3"/><feBlend in="SourceGraphic" in2="blurOut3" mode="normal"/></filter></defs><g><!--MD5=[978ca2c438d5b4890b45876837c52db9]
entity n22417--><rect fill="#FEFECE" filter="url(#f1vixw6e4o6k1n)" height="62.9766" style="stroke:#A80036;stroke-width:1.5;" width="358" x="103.5" y="7"/><rect fill="#FEFECE" height="10" style="stroke:#A80036;stroke-width:1.5;" width="15" x="441.5" y="12"/><rect fill="#FEFECE" height="2" style="stroke:#A80036;stroke-width:1.5;" width="4" x="439.5" y="14"/><rect fill="#FEFECE" height="2" style="stroke:#A80036;stroke-width:1.5;" width="4" x="439.5" y="18"/><text fill="#000000" font-family="sans-serif" font-size="14" font-style="italic" lengthAdjust="spacing" textLength="280" x="137.5" y="40.5352">«Component Directory File Java Package»</text><text fill="#000000" font-family="sans-serif" font-size="14" lengthAdjust="spacing" textLength="318" x="118.5" y="57.0234">org.springframework.samples.petclinic.system</text><!--MD5=[171ae2b64a1a98b8ab717c73375324b5]
entity n21653--><rect fill="#FEFECE" filter="url(#f1vixw6e4o6k1n)" height="62.9766" style="stroke:#A80036;stroke-width:1.5;" width="331" x="7" y="147"/><rect fill="#FEFECE" height="10" style="stroke:#A80036;stroke-width:1.5;" width="15" x="318" y="152"/><rect fill="#FEFECE" height="2" style="stroke:#A80036;stroke-width:1.5;" width="4" x="316" y="154"/><rect fill="#FEFECE" height="2" style="stroke:#A80036;stroke-width:1.5;" width="4" x="316" y="158"/><text fill="#000000" font-family="sans-serif" font-size="14" font-style="italic" lengthAdjust="spacing" textLength="280" x="27.5" y="180.5352">«Component Directory File Java Package»</text><text fill="#000000" font-family="sans-serif" font-size="14" lengthAdjust="spacing" textLength="291" x="22" y="197.0234">org.springframework.samples.petclinic.vet</text><!--MD5=[bd78f60d4db3b73b4e9c4a42394b1942]
entity n22378--><rect fill="#FEFECE" filter="url(#f1vixw6e4o6k1n)" height="62.9766" style="stroke:#A80036;stroke-width:1.5;" width="338" x="373.5" y="147"/><rect fill="#FEFECE" height="10" style="stroke:#A80036;stroke-width:1.5;" width="15" x="691.5" y="152"/><rect fill="#FEFECE" height="2" style="stroke:#A80036;stroke-width:1.5;" width="4" x="689.5" y="154"/><rect fill="#FEFECE" height="2" style="stroke:#A80036;stroke-width:1.5;" width="4" x="689.5" y="158"/><text fill="#000000" font-family="sans-serif" font-size="14" font-style="italic" lengthAdjust="spacing" textLength="280" x="397.5" y="180.5352">«Component Directory File Java Package»</text><text fill="#000000" font-family="sans-serif" font-size="14" lengthAdjust="spacing" textLength="298" x="388.5" y="197.0234">org.springframework.samples.petclinic.visit</text><!--MD5=[9ce19591351d1dca80349dd22eefbb32]
entity n22058--><rect fill="#FEFECE" filter="url(#f1vixw6e4o6k1n)" height="62.9766" style="stroke:#A80036;stroke-width:1.5;" width="354" x="365.5" y="287"/><rect fill="#FEFECE" height="10" style="stroke:#A80036;stroke-width:1.5;" width="15" x="699.5" y="292"/><rect fill="#FEFECE" height="2" style="stroke:#A80036;stroke-width:1.5;" width="4" x="697.5" y="294"/><rect fill="#FEFECE" height="2" style="stroke:#A80036;stroke-width:1.5;" width="4" x="697.5" y="298"/><text fill="#000000" font-family="sans-serif" font-size="14" font-style="italic" lengthAdjust="spacing" textLength="280" x="397.5" y="320.5352">«Component Directory File Java Package»</text><text fill="#000000" font-family="sans-serif" font-size="14" lengthAdjust="spacing" textLength="314" x="380.5" y="337.0234">org.springframework.samples.petclinic.model</text><!--MD5=[57c241e7eac7123a4c0ded567a236049]
entity n21806--><rect fill="#FEFECE" filter="url(#f1vixw6e4o6k1n)" height="62.9766" style="stroke:#A80036;stroke-width:1.5;" width="354" x="496.5" y="7"/><rect fill="#FEFECE" height="10" style="stroke:#A80036;stroke-width:1.5;" width="15" x="830.5" y="12"/><rect fill="#FEFECE" height="2" style="stroke:#A80036;stroke-width:1.5;" width="4" x="828.5" y="14"/><rect fill="#FEFECE" height="2" style="stroke:#A80036;stroke-width:1.5;" width="4" x="828.5" y="18"/><text fill="#000000" font-family="sans-serif" font-size="14" font-style="italic" lengthAdjust="spacing" textLength="280" x="528.5" y="40.5352">«Component Directory File Java Package»</text><text fill="#000000" font-family="sans-serif" font-size="14" lengthAdjust="spacing" textLength="314" x="511.5" y="57.0234">org.springframework.samples.petclinic.owner</text><!--MD5=[83de10c6d81e493290e9a3476f448a53]
link n21806 to n22058--><path d="M733.53,70.26 C743.99,78.45 753.44,88.33 759.5,100 C783.38,146 870.63,98.23 720.5,257 C710.02,268.08 697.44,277.13 683.87,284.52 " fill="none" id="n21806-to-n22058" style="stroke:#A80036;stroke-width:1.0;"/><polygon fill="#A80036" points="679.24,286.97,689.0649,286.2839,683.6565,284.626,685.3145,279.2175,679.24,286.97" style="stroke:#A80036;stroke-width:1.0;"/><text fill="#000000" font-family="sans-serif" font-size="13" lengthAdjust="spacing" textLength="168" x="807.5" y="183.5684">depends on component (3)</text><!--MD5=[1d73c2b36acf0655c805f39cbeac9f09]
link n21653 to n22058--><path d="M245.52,210.09 C281.21,224.76 324.91,242.29 364.5,257 C390.28,266.58 418.37,276.4 444.46,285.28 " fill="none" id="n21653-to-n22058" style="stroke:#A80036;stroke-width:1.0;"/><polygon fill="#A80036" points="449.31,286.92,442.085,280.2268,444.5781,285.3046,439.5003,287.7978,449.31,286.92" style="stroke:#A80036;stroke-width:1.0;"/><text fill="#000000" font-family="sans-serif" font-size="13" lengthAdjust="spacing" textLength="168" x="365.5" y="253.5684">depends on component (2)</text><!--MD5=[9adeded0f3064a4c6f4485fbfd9aba52]
link n21806 to n22378--><path d="M620.51,70.08 C608.12,78.75 595.6,88.89 585.5,100 C574.34,112.28 564.96,127.96 557.83,142 " fill="none" id="n21806-to-n22378" style="stroke:#A80036;stroke-width:1.0;"/><polygon fill="#A80036" points="555.5,146.69,563.0785,140.3999,557.7189,142.2093,555.9094,136.8497,555.5,146.69" style="stroke:#A80036;stroke-width:1.0;"/><text fill="#000000" font-family="sans-serif" font-size="13" lengthAdjust="spacing" textLength="168" x="586.5" y="113.5684">depends on component (4)</text><!--MD5=[5fb982b238fcf10b6c3ffdce160353fe]
link n22378 to n22058--><path d="M542.5,210.13 C542.5,231.3 542.5,259.54 542.5,281.74 " fill="none" id="n22378-to-n22058" style="stroke:#A80036;stroke-width:1.0;"/><polygon fill="#A80036" points="542.5,286.96,546.5,277.96,542.5,281.96,538.5,277.96,542.5,286.96" style="stroke:#A80036;stroke-width:1.0;"/><text fill="#000000" font-family="sans-serif" font-size="13" lengthAdjust="spacing" textLength="168" x="543.5" y="253.5684">depends on component (1)</text><!--MD5=[0f15e33279d8f8b1a80bf6398dcef61a]
@startuml
skinparam componentStyle uml2
  [org.springframework.samples.petclinic.system] <<Component Directory File Java Package>> as n22417
  [org.springframework.samples.petclinic.vet] <<Component Directory File Java Package>> as n21653
  [org.springframework.samples.petclinic.visit] <<Component Directory File Java Package>> as n22378
  [org.springframework.samples.petclinic.model] <<Component Directory File Java Package>> as n22058
  [org.springframework.samples.petclinic.owner] <<Component Directory File Java Package>> as n21806

n21806 - -> n22058 : depends on component (3)
n21653 - -> n22058 : depends on component (2)
n21806 - -> n22378 : depends on component (4)
n22378 - -> n22058 : depends on component (1)

@enduml

PlantUML version 1.2021.6(Fri May 14 09:09:51 CEST 2021)
(GPL source distribution)
Java Runtime: OpenJDK Runtime Environment
JVM: OpenJDK 64-Bit Server VM
Default Encoding: UTF-8
Language: da
Country: DK
--></g></svg>