<?xml version="1.0" encoding="UTF-8" standalone="no"?><svg xmlns="http://www.w3.org/2000/svg" xmlns:xlink="http://www.w3.org/1999/xlink" contentScriptType="application/ecmascript" contentStyleType="text/css" height="354px" preserveAspectRatio="none" style="width:5401px;height:354px;background:#FFFFFF;" version="1.1" viewBox="0 0 5401 354" width="5401px" zoomAndPan="magnify"><defs><filter height="300%" id="f49q66vpowd50" width="300%" x="-1" y="-1"><feGaussianBlur result="blurOut" stdDeviation="2.0"/><feColorMatrix in="blurOut" result="blurOut2" type="matrix" values="0 0 0 0 0 0 0 0 0 0 0 0 0 0 0 0 0 0 .4 0"/><feOffset dx="4.0" dy="4.0" in="blurOut2" result="blurOut3"/><feBlend in="SourceGraphic" in2="blurOut3" mode="normal"/></filter></defs><g><!--MD5=[aa288ebfcd168a18c9c4c41ed47fbcca]
cluster n21652--><polygon fill="#FFFFFF" filter="url(#f49q66vpowd50)" points="16,51.92,300,51.92,307,74.4083,5384,74.4083,5384,347.92,16,347.92,16,51.92" style="stroke:#000000;stroke-width:1.5;"/><line style="stroke:#000000;stroke-width:1.5;" x1="16" x2="307" y1="74.4083" y2="74.4083"/><text fill="#000000" font-family="sans-serif" font-size="14" font-weight="bold" lengthAdjust="spacing" textLength="278" x="20" y="67.4552">org.springframework.samples.petclinic</text><!--MD5=[c1d2d4558bb2f553e348cdc2e48c30a9]
cluster n21653--><polygon fill="#FFFFFF" filter="url(#f49q66vpowd50)" points="4514,94.92,4823,94.92,4830,117.4083,5360,117.4083,5360,212.92,4514,212.92,4514,94.92" style="stroke:#000000;stroke-width:1.5;"/><line style="stroke:#000000;stroke-width:1.5;" x1="4514" x2="4830" y1="117.4083" y2="117.4083"/><text fill="#000000" font-family="sans-serif" font-size="14" font-weight="bold" lengthAdjust="spacing" textLength="303" x="4518" y="110.4552">org.springframework.samples.petclinic.vet</text><!--MD5=[0622fe9aa78b02108d2633aa64ceee9f]
cluster n21806--><polygon fill="#FFFFFF" filter="url(#f49q66vpowd50)" points="1794,94.92,2125,94.92,2132,117.4083,4490,117.4083,4490,212.92,1794,212.92,1794,94.92" style="stroke:#000000;stroke-width:1.5;"/><line style="stroke:#000000;stroke-width:1.5;" x1="1794" x2="2132" y1="117.4083" y2="117.4083"/><text fill="#000000" font-family="sans-serif" font-size="14" font-weight="bold" lengthAdjust="spacing" textLength="325" x="1798" y="110.4552">org.springframework.samples.petclinic.owner</text><!--MD5=[4e55f2c8e30245cc17c06c2f8e12a78f]
cluster n22417--><polygon fill="#FFFFFF" filter="url(#f49q66vpowd50)" points="873,94.92,1212,94.92,1219,117.4083,1770,117.4083,1770,323.92,873,323.92,873,94.92" style="stroke:#000000;stroke-width:1.5;"/><line style="stroke:#000000;stroke-width:1.5;" x1="873" x2="1219" y1="117.4083" y2="117.4083"/><text fill="#000000" font-family="sans-serif" font-size="14" font-weight="bold" lengthAdjust="spacing" textLength="333" x="877" y="110.4552">org.springframework.samples.petclinic.system</text><!--MD5=[5cc328ccb68f7cbb295c67c48874fc59]
cluster n22378--><polygon fill="#FFFFFF" filter="url(#f49q66vpowd50)" points="435,94.92,754,94.92,761,117.4083,849,117.4083,849,212.92,435,212.92,435,94.92" style="stroke:#000000;stroke-width:1.5;"/><line style="stroke:#000000;stroke-width:1.5;" x1="435" x2="761" y1="117.4083" y2="117.4083"/><text fill="#000000" font-family="sans-serif" font-size="14" font-weight="bold" lengthAdjust="spacing" textLength="313" x="439" y="110.4552">org.springframework.samples.petclinic.visit</text><!--MD5=[fb123ad476d5ddb7178fb7301c089c43]
class n21796--><rect codeLine="9" fill="#FEFECE" filter="url(#f49q66vpowd50)" height="48" id="n21796" style="stroke:#A80036;stroke-width:1.5;" width="383" x="32.5" y="148.92"/><ellipse cx="47.5" cy="164.92" fill="#ADD1B2" rx="11" ry="11" style="stroke:#A80036;stroke-width:1.0;"/><path d="M49.9731,171.0631 Q49.3921,171.3619 48.7529,171.5113 Q48.1138,171.6607 47.4082,171.6607 Q44.9014,171.6607 43.5815,170.0089 Q42.2617,168.357 42.2617,165.2359 Q42.2617,162.1065 43.5815,160.4547 Q44.9014,158.8028 47.4082,158.8028 Q48.1138,158.8028 48.7612,158.9522 Q49.4087,159.1016 49.9731,159.4005 L49.9731,162.1231 Q49.3423,161.5421 48.7488,161.2723 Q48.1553,161.0025 47.5244,161.0025 Q46.1797,161.0025 45.4949,162.0692 Q44.8101,163.1358 44.8101,165.2359 Q44.8101,167.3277 45.4949,168.3944 Q46.1797,169.461 47.5244,169.461 Q48.1553,169.461 48.7488,169.1912 Q49.3423,168.9215 49.9731,168.3404 Z " fill="#000000"/><ellipse cx="66.5" cy="164.42" fill="#84BE84" rx="3" ry="3" style="stroke:#038048;stroke-width:1.0;"/><text fill="#000000" font-family="sans-serif" font-size="12" lengthAdjust="spacing" textLength="340" x="72.5" y="169.4552">org.springframework.samples.petclinic.PetClinicApplication</text><line style="stroke:#A80036;stroke-width:1.5;" x1="33.5" x2="414.5" y1="180.92" y2="180.92"/><line style="stroke:#A80036;stroke-width:1.5;" x1="33.5" x2="414.5" y1="188.92" y2="188.92"/><!--MD5=[b5b71bc3ce3a254e9f303db34d76e050]
class n21723--><rect codeLine="4" fill="#FEFECE" filter="url(#f49q66vpowd50)" height="48" id="n21723" style="stroke:#A80036;stroke-width:1.5;" width="372" x="4972" y="148.92"/><ellipse cx="4987" cy="164.92" fill="#B4A7E5" rx="11" ry="11" style="stroke:#A80036;stroke-width:1.0;"/><path d="M4983.4277,161.1851 L4983.4277,159.0269 L4990.8071,159.0269 L4990.8071,161.1851 L4988.3418,161.1851 L4988.3418,169.2618 L4990.8071,169.2618 L4990.8071,171.42 L4983.4277,171.42 L4983.4277,169.2618 L4985.8931,169.2618 L4985.8931,161.1851 Z " fill="#000000"/><ellipse cx="5006" cy="164.42" fill="#84BE84" rx="3" ry="3" style="stroke:#038048;stroke-width:1.0;"/><text fill="#000000" font-family="sans-serif" font-size="12" font-style="italic" lengthAdjust="spacing" textLength="329" x="5012" y="169.4552">org.springframework.samples.petclinic.vet.VetRepository</text><line style="stroke:#A80036;stroke-width:1.5;" x1="4973" x2="5343" y1="180.92" y2="180.92"/><line style="stroke:#A80036;stroke-width:1.5;" x1="4973" x2="5343" y1="188.92" y2="188.92"/><!--MD5=[fef00c259b448e3732c418e9bb5582c0]
class n21764--><rect codeLine="6" fill="#FEFECE" filter="url(#f49q66vpowd50)" height="48" id="n21764" style="stroke:#A80036;stroke-width:1.5;" width="367" x="4530.5" y="148.92"/><ellipse cx="4545.5" cy="164.92" fill="#ADD1B2" rx="11" ry="11" style="stroke:#A80036;stroke-width:1.0;"/><path d="M4547.9731,171.0631 Q4547.3921,171.3619 4546.7529,171.5113 Q4546.1138,171.6607 4545.4082,171.6607 Q4542.9014,171.6607 4541.5815,170.0089 Q4540.2617,168.357 4540.2617,165.2359 Q4540.2617,162.1065 4541.5815,160.4547 Q4542.9014,158.8028 4545.4082,158.8028 Q4546.1138,158.8028 4546.7612,158.9522 Q4547.4087,159.1016 4547.9731,159.4005 L4547.9731,162.1231 Q4547.3423,161.5421 4546.7488,161.2723 Q4546.1553,161.0025 4545.5244,161.0025 Q4544.1797,161.0025 4543.4949,162.0692 Q4542.8101,163.1358 4542.8101,165.2359 Q4542.8101,167.3277 4543.4949,168.3944 Q4544.1797,169.461 4545.5244,169.461 Q4546.1553,169.461 4546.7488,169.1912 Q4547.3423,168.9215 4547.9731,168.3404 Z " fill="#000000"/><polygon fill="#4177AF" points="4564.5,160.42,4560.5,166.42,4568.5,166.42" style="stroke:#1963A0;stroke-width:1.0;"/><text fill="#000000" font-family="sans-serif" font-size="12" lengthAdjust="spacing" textLength="324" x="4570.5" y="169.4552">org.springframework.samples.petclinic.vet.VetController</text><line style="stroke:#A80036;stroke-width:1.5;" x1="4531.5" x2="4896.5" y1="180.92" y2="180.92"/><line style="stroke:#A80036;stroke-width:1.5;" x1="4531.5" x2="4896.5" y1="188.92" y2="188.92"/><!--MD5=[e0eb899490cdd441f02c359a1f60a919]
class n21807--><rect codeLine="12" fill="#FEFECE" filter="url(#f49q66vpowd50)" height="48" id="n21807" style="stroke:#A80036;stroke-width:1.5;" width="408" x="3152" y="148.92"/><ellipse cx="3167" cy="164.92" fill="#B4A7E5" rx="11" ry="11" style="stroke:#A80036;stroke-width:1.0;"/><path d="M3163.4277,161.1851 L3163.4277,159.0269 L3170.8071,159.0269 L3170.8071,161.1851 L3168.3418,161.1851 L3168.3418,169.2618 L3170.8071,169.2618 L3170.8071,171.42 L3163.4277,171.42 L3163.4277,169.2618 L3165.8931,169.2618 L3165.8931,161.1851 Z " fill="#000000"/><ellipse cx="3186" cy="164.42" fill="#84BE84" rx="3" ry="3" style="stroke:#038048;stroke-width:1.0;"/><text fill="#000000" font-family="sans-serif" font-size="12" font-style="italic" lengthAdjust="spacing" textLength="365" x="3192" y="169.4552">org.springframework.samples.petclinic.owner.OwnerRepository</text><line style="stroke:#A80036;stroke-width:1.5;" x1="3153" x2="3559" y1="180.92" y2="180.92"/><line style="stroke:#A80036;stroke-width:1.5;" x1="3153" x2="3559" y1="188.92" y2="188.92"/><!--MD5=[81fa333af3ac27ee8def971e761354d4]
class n21845--><rect codeLine="14" fill="#FEFECE" filter="url(#f49q66vpowd50)" height="48" id="n21845" style="stroke:#A80036;stroke-width:1.5;" width="389" x="4084.5" y="148.92"/><ellipse cx="4099.5" cy="164.92" fill="#B4A7E5" rx="11" ry="11" style="stroke:#A80036;stroke-width:1.0;"/><path d="M4095.9277,161.1851 L4095.9277,159.0269 L4103.3071,159.0269 L4103.3071,161.1851 L4100.8418,161.1851 L4100.8418,169.2618 L4103.3071,169.2618 L4103.3071,171.42 L4095.9277,171.42 L4095.9277,169.2618 L4098.3931,169.2618 L4098.3931,161.1851 Z " fill="#000000"/><ellipse cx="4118.5" cy="164.42" fill="#84BE84" rx="3" ry="3" style="stroke:#038048;stroke-width:1.0;"/><text fill="#000000" font-family="sans-serif" font-size="12" font-style="italic" lengthAdjust="spacing" textLength="346" x="4124.5" y="169.4552">org.springframework.samples.petclinic.owner.PetRepository</text><line style="stroke:#A80036;stroke-width:1.5;" x1="4085.5" x2="4472.5" y1="180.92" y2="180.92"/><line style="stroke:#A80036;stroke-width:1.5;" x1="4085.5" x2="4472.5" y1="188.92" y2="188.92"/><!--MD5=[ec5ad5dbe3b65ddf55fe510b9d7dd858]
class n21836--><rect codeLine="16" fill="#FEFECE" filter="url(#f49q66vpowd50)" height="48" id="n21836" style="stroke:#A80036;stroke-width:1.5;" width="413" x="3595.5" y="148.92"/><ellipse cx="3610.5" cy="164.92" fill="#ADD1B2" rx="11" ry="11" style="stroke:#A80036;stroke-width:1.0;"/><path d="M3612.9731,171.0631 Q3612.3921,171.3619 3611.7529,171.5113 Q3611.1138,171.6607 3610.4082,171.6607 Q3607.9014,171.6607 3606.5815,170.0089 Q3605.2617,168.357 3605.2617,165.2359 Q3605.2617,162.1065 3606.5815,160.4547 Q3607.9014,158.8028 3610.4082,158.8028 Q3611.1138,158.8028 3611.7612,158.9522 Q3612.4087,159.1016 3612.9731,159.4005 L3612.9731,162.1231 Q3612.3423,161.5421 3611.7488,161.2723 Q3611.1553,161.0025 3610.5244,161.0025 Q3609.1797,161.0025 3608.4949,162.0692 Q3607.8101,163.1358 3607.8101,165.2359 Q3607.8101,167.3277 3608.4949,168.3944 Q3609.1797,169.461 3610.5244,169.461 Q3611.1553,169.461 3611.7488,169.1912 Q3612.3423,168.9215 3612.9731,168.3404 Z " fill="#000000"/><ellipse cx="3629.5" cy="164.42" fill="#84BE84" rx="3" ry="3" style="stroke:#038048;stroke-width:1.0;"/><text fill="#000000" font-family="sans-serif" font-size="12" lengthAdjust="spacing" textLength="370" x="3635.5" y="169.4552">org.springframework.samples.petclinic.owner.PetTypeFormatter</text><line style="stroke:#A80036;stroke-width:1.5;" x1="3596.5" x2="4007.5" y1="180.92" y2="180.92"/><line style="stroke:#A80036;stroke-width:1.5;" x1="3596.5" x2="4007.5" y1="188.92" y2="188.92"/><!--MD5=[5250bd81caa9ddcf73ac8d8d94325601]
class n21902--><rect codeLine="18" fill="#FEFECE" filter="url(#f49q66vpowd50)" height="48" id="n21902" style="stroke:#A80036;stroke-width:1.5;" width="384" x="2674" y="148.92"/><ellipse cx="2689" cy="164.92" fill="#ADD1B2" rx="11" ry="11" style="stroke:#A80036;stroke-width:1.0;"/><path d="M2691.4731,171.0631 Q2690.8921,171.3619 2690.2529,171.5113 Q2689.6138,171.6607 2688.9082,171.6607 Q2686.4014,171.6607 2685.0815,170.0089 Q2683.7617,168.357 2683.7617,165.2359 Q2683.7617,162.1065 2685.0815,160.4547 Q2686.4014,158.8028 2688.9082,158.8028 Q2689.6138,158.8028 2690.2612,158.9522 Q2690.9087,159.1016 2691.4731,159.4005 L2691.4731,162.1231 Q2690.8423,161.5421 2690.2488,161.2723 Q2689.6553,161.0025 2689.0244,161.0025 Q2687.6797,161.0025 2686.9949,162.0692 Q2686.3101,163.1358 2686.3101,165.2359 Q2686.3101,167.3277 2686.9949,168.3944 Q2687.6797,169.461 2689.0244,169.461 Q2689.6553,169.461 2690.2488,169.1912 Q2690.8423,168.9215 2691.4731,168.3404 Z " fill="#000000"/><polygon fill="#4177AF" points="2708,160.42,2704,166.42,2712,166.42" style="stroke:#1963A0;stroke-width:1.0;"/><text fill="#000000" font-family="sans-serif" font-size="12" lengthAdjust="spacing" textLength="341" x="2714" y="169.4552">org.springframework.samples.petclinic.owner.PetController</text><line style="stroke:#A80036;stroke-width:1.5;" x1="2675" x2="3057" y1="180.92" y2="180.92"/><line style="stroke:#A80036;stroke-width:1.5;" x1="2675" x2="3057" y1="188.92" y2="188.92"/><!--MD5=[659d23fb1a516e5140971b686a5a4a01]
class n22109--><rect codeLine="20" fill="#FEFECE" filter="url(#f49q66vpowd50)" height="48" id="n22109" style="stroke:#A80036;stroke-width:1.5;" width="403" x="2235.5" y="148.92"/><ellipse cx="2250.5" cy="164.92" fill="#ADD1B2" rx="11" ry="11" style="stroke:#A80036;stroke-width:1.0;"/><path d="M2252.9731,171.0631 Q2252.3921,171.3619 2251.7529,171.5113 Q2251.1138,171.6607 2250.4082,171.6607 Q2247.9014,171.6607 2246.5815,170.0089 Q2245.2617,168.357 2245.2617,165.2359 Q2245.2617,162.1065 2246.5815,160.4547 Q2247.9014,158.8028 2250.4082,158.8028 Q2251.1138,158.8028 2251.7612,158.9522 Q2252.4087,159.1016 2252.9731,159.4005 L2252.9731,162.1231 Q2252.3423,161.5421 2251.7488,161.2723 Q2251.1553,161.0025 2250.5244,161.0025 Q2249.1797,161.0025 2248.4949,162.0692 Q2247.8101,163.1358 2247.8101,165.2359 Q2247.8101,167.3277 2248.4949,168.3944 Q2249.1797,169.461 2250.5244,169.461 Q2251.1553,169.461 2251.7488,169.1912 Q2252.3423,168.9215 2252.9731,168.3404 Z " fill="#000000"/><polygon fill="#4177AF" points="2269.5,160.42,2265.5,166.42,2273.5,166.42" style="stroke:#1963A0;stroke-width:1.0;"/><text fill="#000000" font-family="sans-serif" font-size="12" lengthAdjust="spacing" textLength="360" x="2275.5" y="169.4552">org.springframework.samples.petclinic.owner.OwnerController</text><line style="stroke:#A80036;stroke-width:1.5;" x1="2236.5" x2="2637.5" y1="180.92" y2="180.92"/><line style="stroke:#A80036;stroke-width:1.5;" x1="2236.5" x2="2637.5" y1="188.92" y2="188.92"/><!--MD5=[02b8f6fbd4fe699a2711bdbb0109551b]
class n22317--><rect codeLine="22" fill="#FEFECE" filter="url(#f49q66vpowd50)" height="48" id="n22317" style="stroke:#A80036;stroke-width:1.5;" width="390" x="1810" y="148.92"/><ellipse cx="1825" cy="164.92" fill="#ADD1B2" rx="11" ry="11" style="stroke:#A80036;stroke-width:1.0;"/><path d="M1827.4731,171.0631 Q1826.8921,171.3619 1826.2529,171.5113 Q1825.6138,171.6607 1824.9082,171.6607 Q1822.4014,171.6607 1821.0815,170.0089 Q1819.7617,168.357 1819.7617,165.2359 Q1819.7617,162.1065 1821.0815,160.4547 Q1822.4014,158.8028 1824.9082,158.8028 Q1825.6138,158.8028 1826.2612,158.9522 Q1826.9087,159.1016 1827.4731,159.4005 L1827.4731,162.1231 Q1826.8423,161.5421 1826.2488,161.2723 Q1825.6553,161.0025 1825.0244,161.0025 Q1823.6797,161.0025 1822.9949,162.0692 Q1822.3101,163.1358 1822.3101,165.2359 Q1822.3101,167.3277 1822.9949,168.3944 Q1823.6797,169.461 1825.0244,169.461 Q1825.6553,169.461 1826.2488,169.1912 Q1826.8423,168.9215 1827.4731,168.3404 Z " fill="#000000"/><polygon fill="#4177AF" points="1844,160.42,1840,166.42,1848,166.42" style="stroke:#1963A0;stroke-width:1.0;"/><text fill="#000000" font-family="sans-serif" font-size="12" lengthAdjust="spacing" textLength="347" x="1850" y="169.4552">org.springframework.samples.petclinic.owner.VisitController</text><line style="stroke:#A80036;stroke-width:1.5;" x1="1811" x2="2199" y1="180.92" y2="180.92"/><line style="stroke:#A80036;stroke-width:1.5;" x1="1811" x2="2199" y1="188.92" y2="188.92"/><!--MD5=[01ef3c371e1237f6abd2c75d95f40e88]
class n22049--><rect codeLine="26" fill="#FEFECE" filter="url(#f49q66vpowd50)" height="48" id="n22049" style="stroke:#A80036;stroke-width:1.5;" width="404" x="889" y="148.92"/><ellipse cx="904" cy="164.92" fill="#ADD1B2" rx="11" ry="11" style="stroke:#A80036;stroke-width:1.0;"/><path d="M906.4731,171.0631 Q905.8921,171.3619 905.2529,171.5113 Q904.6138,171.6607 903.9082,171.6607 Q901.4014,171.6607 900.0815,170.0089 Q898.7617,168.357 898.7617,165.2359 Q898.7617,162.1065 900.0815,160.4547 Q901.4014,158.8028 903.9082,158.8028 Q904.6138,158.8028 905.2612,158.9522 Q905.9087,159.1016 906.4731,159.4005 L906.4731,162.1231 Q905.8423,161.5421 905.2488,161.2723 Q904.6553,161.0025 904.0244,161.0025 Q902.6797,161.0025 901.9949,162.0692 Q901.3101,163.1358 901.3101,165.2359 Q901.3101,167.3277 901.9949,168.3944 Q902.6797,169.461 904.0244,169.461 Q904.6553,169.461 905.2488,169.1912 Q905.8423,168.9215 906.4731,168.3404 Z " fill="#000000"/><polygon fill="#4177AF" points="923,160.42,919,166.42,927,166.42" style="stroke:#1963A0;stroke-width:1.0;"/><text fill="#000000" font-family="sans-serif" font-size="12" lengthAdjust="spacing" textLength="361" x="929" y="169.4552">org.springframework.samples.petclinic.system.CrashController</text><line style="stroke:#A80036;stroke-width:1.5;" x1="890" x2="1292" y1="180.92" y2="180.92"/><line style="stroke:#A80036;stroke-width:1.5;" x1="890" x2="1292" y1="188.92" y2="188.92"/><!--MD5=[a3c7ea16b51732e9aea53310797d1511]
class n22418--><rect codeLine="28" fill="#FEFECE" filter="url(#f49q66vpowd50)" height="48" id="n22418" style="stroke:#A80036;stroke-width:1.5;" width="426" x="1328" y="148.92"/><ellipse cx="1343" cy="164.92" fill="#ADD1B2" rx="11" ry="11" style="stroke:#A80036;stroke-width:1.0;"/><path d="M1345.4731,171.0631 Q1344.8921,171.3619 1344.2529,171.5113 Q1343.6138,171.6607 1342.9082,171.6607 Q1340.4014,171.6607 1339.0815,170.0089 Q1337.7617,168.357 1337.7617,165.2359 Q1337.7617,162.1065 1339.0815,160.4547 Q1340.4014,158.8028 1342.9082,158.8028 Q1343.6138,158.8028 1344.2612,158.9522 Q1344.9087,159.1016 1345.4731,159.4005 L1345.4731,162.1231 Q1344.8423,161.5421 1344.2488,161.2723 Q1343.6553,161.0025 1343.0244,161.0025 Q1341.6797,161.0025 1340.9949,162.0692 Q1340.3101,163.1358 1340.3101,165.2359 Q1340.3101,167.3277 1340.9949,168.3944 Q1341.6797,169.461 1343.0244,169.461 Q1343.6553,169.461 1344.2488,169.1912 Q1344.8423,168.9215 1345.4731,168.3404 Z " fill="#000000"/><polygon fill="#4177AF" points="1362,160.42,1358,166.42,1366,166.42" style="stroke:#1963A0;stroke-width:1.0;"/><text fill="#000000" font-family="sans-serif" font-size="12" lengthAdjust="spacing" textLength="383" x="1368" y="169.4552">org.springframework.samples.petclinic.system.CacheConfiguration</text><line style="stroke:#A80036;stroke-width:1.5;" x1="1329" x2="1753" y1="180.92" y2="180.92"/><line style="stroke:#A80036;stroke-width:1.5;" x1="1329" x2="1753" y1="188.92" y2="188.92"/><!--MD5=[7b4a00df97b69f7d85fe3ab803983a89]
class n22443--><rect codeLine="30" fill="#FEFECE" filter="url(#f49q66vpowd50)" height="48" id="n22443" style="stroke:#A80036;stroke-width:1.5;" width="422" x="889" y="259.92"/><ellipse cx="904" cy="275.92" fill="#ADD1B2" rx="11" ry="11" style="stroke:#A80036;stroke-width:1.0;"/><path d="M906.4731,282.0631 Q905.8921,282.3619 905.2529,282.5113 Q904.6138,282.6607 903.9082,282.6607 Q901.4014,282.6607 900.0815,281.0089 Q898.7617,279.357 898.7617,276.2359 Q898.7617,273.1065 900.0815,271.4547 Q901.4014,269.8028 903.9082,269.8028 Q904.6138,269.8028 905.2612,269.9522 Q905.9087,270.1016 906.4731,270.4005 L906.4731,273.1231 Q905.8423,272.5421 905.2488,272.2723 Q904.6553,272.0025 904.0244,272.0025 Q902.6797,272.0025 901.9949,273.0692 Q901.3101,274.1358 901.3101,276.2359 Q901.3101,278.3277 901.9949,279.3944 Q902.6797,280.461 904.0244,280.461 Q904.6553,280.461 905.2488,280.1912 Q905.8423,279.9215 906.4731,279.3404 Z " fill="#000000"/><polygon fill="#4177AF" points="923,271.42,919,277.42,927,277.42" style="stroke:#1963A0;stroke-width:1.0;"/><text fill="#000000" font-family="sans-serif" font-size="12" lengthAdjust="spacing" textLength="379" x="929" y="280.4552">org.springframework.samples.petclinic.system.WelcomeController</text><line style="stroke:#A80036;stroke-width:1.5;" x1="890" x2="1310" y1="291.92" y2="291.92"/><line style="stroke:#A80036;stroke-width:1.5;" x1="890" x2="1310" y1="299.92" y2="299.92"/><!--MD5=[a28876a7461ac8d8f429ebc7db5a44bb]
class n22115--><rect codeLine="34" fill="#FEFECE" filter="url(#f49q66vpowd50)" height="48" id="n22115" style="stroke:#A80036;stroke-width:1.5;" width="382" x="451" y="148.92"/><ellipse cx="466" cy="164.92" fill="#B4A7E5" rx="11" ry="11" style="stroke:#A80036;stroke-width:1.0;"/><path d="M462.4277,161.1851 L462.4277,159.0269 L469.8071,159.0269 L469.8071,161.1851 L467.3418,161.1851 L467.3418,169.2618 L469.8071,169.2618 L469.8071,171.42 L462.4277,171.42 L462.4277,169.2618 L464.8931,169.2618 L464.8931,161.1851 Z " fill="#000000"/><ellipse cx="485" cy="164.42" fill="#84BE84" rx="3" ry="3" style="stroke:#038048;stroke-width:1.0;"/><text fill="#000000" font-family="sans-serif" font-size="12" font-style="italic" lengthAdjust="spacing" textLength="339" x="491" y="169.4552">org.springframework.samples.petclinic.visit.VisitRepository</text><line style="stroke:#A80036;stroke-width:1.5;" x1="452" x2="832" y1="180.92" y2="180.92"/><line style="stroke:#A80036;stroke-width:1.5;" x1="452" x2="832" y1="188.92" y2="188.92"/><!--MD5=[44e03522c73c0f5e706ff1adb1e89d9e]
link n21764 to n21723--><path codeLine="38" d="M4897.8,172.92 C4920.53,172.92 4943.82,172.92 4966.66,172.92 " fill="none" id="n21764-to-n21723" style="stroke:#A80036;stroke-width:1.0;"/><polygon fill="#A80036" points="4971.83,172.92,4962.83,168.92,4966.83,172.92,4962.83,176.92,4971.83,172.92" style="stroke:#A80036;stroke-width:1.0;"/><rect fill="none" height="6" style="stroke:#C82930;stroke-width:1.0;" width="6" x="4917.75" y="159.0753"/><text fill="#000000" font-family="sans-serif" font-size="13" lengthAdjust="spacing" textLength="26" x="4927.75" y="166.4884">vets</text><!--MD5=[ebdcc635f89c78e4899f635b749bb45f]
link n21836 to n21845--><path codeLine="39" d="M4008.79,172.92 C4032.07,172.92 4055.75,172.92 4078.94,172.92 " fill="none" id="n21836-to-n21845" style="stroke:#A80036;stroke-width:1.0;"/><polygon fill="#A80036" points="4084.19,172.92,4075.19,168.92,4079.19,172.92,4075.19,176.92,4084.19,172.92" style="stroke:#A80036;stroke-width:1.0;"/><rect fill="none" height="6" style="stroke:#C82930;stroke-width:1.0;" width="6" x="4029" y="159.0753"/><text fill="#000000" font-family="sans-serif" font-size="13" lengthAdjust="spacing" textLength="27" x="4039" y="166.4884">pets</text><!--MD5=[1823710a2343294c6e9d75b686f55332]
link n21902 to n21807--><path codeLine="40" d="M3058.25,172.92 C3087.28,172.92 3117.33,172.92 3146.69,172.92 " fill="none" id="n21902-to-n21807" style="stroke:#A80036;stroke-width:1.0;"/><polygon fill="#A80036" points="3151.78,172.92,3142.78,168.92,3146.78,172.92,3142.78,176.92,3151.78,172.92" style="stroke:#A80036;stroke-width:1.0;"/><rect fill="none" height="6" style="stroke:#C82930;stroke-width:1.0;" width="6" x="3078.5" y="159.0753"/><text fill="#000000" font-family="sans-serif" font-size="13" lengthAdjust="spacing" textLength="45" x="3088.5" y="166.4884">owners</text><!--MD5=[0d946f4084939bd17090ffdfb0c5f348]
link n21902 to n21845--><path codeLine="41" d="M2906.63,148.91 C2957.82,120.17 3049.49,73.71 3135,55.92 C3328.85,15.59 3832.63,13.37 4026,55.92 C4104.45,73.18 4187.53,117.25 4236.26,146.1 " fill="none" id="n21902-to-n21845" style="stroke:#A80036;stroke-width:1.0;"/><polygon fill="#A80036" points="4240.58,148.67,4234.889,140.6318,4236.2825,146.1143,4230.8,147.5078,4240.58,148.67" style="stroke:#A80036;stroke-width:1.0;"/><rect fill="none" height="6" style="stroke:#C82930;stroke-width:1.0;" width="6" x="3553.5" y="25.0753"/><text fill="#000000" font-family="sans-serif" font-size="13" lengthAdjust="spacing" textLength="27" x="3563.5" y="32.4884">pets</text><!--MD5=[44a77e54b10bdf2e3003f3e70671efc5]
link n22109 to n21807--><path codeLine="42" d="M2469.92,148.71 C2511.18,120.01 2585.22,73.82 2657,55.92 C2837.69,10.86 2893.41,19.31 3076,55.92 C3162.17,73.2 3254.93,117.64 3309.1,146.5 " fill="none" id="n22109-to-n21807" style="stroke:#A80036;stroke-width:1.0;"/><polygon fill="#A80036" points="3313.58,148.9,3307.5356,141.1241,3309.1726,146.5389,3303.7578,148.1759,3313.58,148.9" style="stroke:#A80036;stroke-width:1.0;"/><rect fill="none" height="6" style="stroke:#C82930;stroke-width:1.0;" width="6" x="2718.5" y="25.0753"/><text fill="#000000" font-family="sans-serif" font-size="13" lengthAdjust="spacing" textLength="45" x="2728.5" y="32.4884">owners</text><!--MD5=[e2db71127c2d212fcd966178ed298428]
link n22109 to n22115--><path codeLine="43" d="M2404.25,148.71 C2363.2,120.01 2289.51,73.82 2218,55.92 C2073.03,19.62 1018.36,21.21 873,55.92 C800.71,73.18 725.45,116.94 681.21,145.78 " fill="none" id="n22109-to-n22115" style="stroke:#A80036;stroke-width:1.0;"/><polygon fill="#A80036" points="676.76,148.7,686.4801,147.1128,680.9421,145.9595,682.0954,140.4215,676.76,148.7" style="stroke:#A80036;stroke-width:1.0;"/><rect fill="none" height="6" style="stroke:#C82930;stroke-width:1.0;" width="6" x="884" y="25.0753"/><text fill="#000000" font-family="sans-serif" font-size="13" lengthAdjust="spacing" textLength="34" x="894" y="32.4884">visits</text><!--MD5=[aa44af572ab41dff4692368645a4be9f]
link n22317 to n21845--><path codeLine="44" d="M2036.74,148.72 C2076.56,120.03 2148.12,73.85 2218,55.92 C2412.59,6 3829.8,12.75 4026,55.92 C4104.45,73.18 4187.53,117.25 4236.26,146.1 " fill="none" id="n22317-to-n21845" style="stroke:#A80036;stroke-width:1.0;"/><polygon fill="#A80036" points="4240.58,148.67,4234.889,140.6318,4236.2825,146.1143,4230.8,147.5078,4240.58,148.67" style="stroke:#A80036;stroke-width:1.0;"/><rect fill="none" height="6" style="stroke:#C82930;stroke-width:1.0;" width="6" x="2936.5" y="25.0753"/><text fill="#000000" font-family="sans-serif" font-size="13" lengthAdjust="spacing" textLength="27" x="2946.5" y="32.4884">pets</text><!--MD5=[b6133d531263fbef1497ed14e3689aeb]
link n22317 to n22115--><path codeLine="45" d="M1969.57,148.69 C1925.23,119.97 1845.86,73.76 1770,55.92 C1575.96,10.29 1066.88,9.62 873,55.92 C800.71,73.18 725.45,116.94 681.21,145.78 " fill="none" id="n22317-to-n22115" style="stroke:#A80036;stroke-width:1.0;"/><polygon fill="#A80036" points="676.76,148.7,686.4801,147.1128,680.9421,145.9595,682.0954,140.4215,676.76,148.7" style="stroke:#A80036;stroke-width:1.0;"/><rect fill="none" height="6" style="stroke:#C82930;stroke-width:1.0;" width="6" x="1716" y="25.0753"/><text fill="#000000" font-family="sans-serif" font-size="13" lengthAdjust="spacing" textLength="34" x="1726" y="32.4884">visits</text><!--MD5=[9e1aeb9066b3d0a8c14568dc8bbef37f]
link n22049 to n22418--><!--MD5=[77b4ca7e3c8c0add084a3ca573834c30]
link n22049 to n22443--><!--MD5=[bbf80002c8a98be171e8dd857ab91afe]
@startuml
skinparam componentStyle uml2
package n21652 as "org.springframework.samples.petclinic"{
  package n21653 as "org.springframework.samples.petclinic.vet"{
    +interface n21723 as "org.springframework.samples.petclinic.vet.VetRepository"{
    }
    ~class n21764 as "org.springframework.samples.petclinic.vet.VetController"{
    }
}
  +class n21796 as "org.springframework.samples.petclinic.PetClinicApplication"{
  }
  package n21806 as "org.springframework.samples.petclinic.owner"{
    +interface n21807 as "org.springframework.samples.petclinic.owner.OwnerRepository"{
    }
    +interface n21845 as "org.springframework.samples.petclinic.owner.PetRepository"{
    }
    +class n21836 as "org.springframework.samples.petclinic.owner.PetTypeFormatter"{
    }
    ~class n21902 as "org.springframework.samples.petclinic.owner.PetController"{
    }
    ~class n22109 as "org.springframework.samples.petclinic.owner.OwnerController"{
    }
    ~class n22317 as "org.springframework.samples.petclinic.owner.VisitController"{
    }
}
  package n22417 as "org.springframework.samples.petclinic.system"{
    ~class n22049 as "org.springframework.samples.petclinic.system.CrashController"{
    }
    ~class n22418 as "org.springframework.samples.petclinic.system.CacheConfiguration"{
    }
    ~class n22443 as "org.springframework.samples.petclinic.system.WelcomeController"{
    }
}
  package n22378 as "org.springframework.samples.petclinic.visit"{
    +interface n22115 as "org.springframework.samples.petclinic.visit.VisitRepository"{
    }
}
}
n21764 -> n21723 : -vets
n21836 -> n21845 : -pets
n21902 -> n21807 : -owners
n21902 -> n21845 : -pets
n22109 -> n21807 : -owners
n22109 -> n22115 : -visits
n22317 -> n21845 : -pets
n22317 -> n22115 : -visits
@enduml

PlantUML version 1.2021.6(Fri May 14 09:09:51 CEST 2021)
(GPL source distribution)
Java Runtime: OpenJDK Runtime Environment
JVM: OpenJDK 64-Bit Server VM
Default Encoding: UTF-8
Language: da
Country: DK
--></g></svg>